<?xml version="1.0" encoding="UTF-8" standalone="no"?>
<!-- Generator: Adobe Illustrator 21.0.0, SVG Export Plug-In . SVG Version: 6.00 Build 0)  -->

<svg
   xmlns:dc="http://purl.org/dc/elements/1.1/"
   xmlns:cc="http://creativecommons.org/ns#"
   xmlns:rdf="http://www.w3.org/1999/02/22-rdf-syntax-ns#"
   xmlns:svg="http://www.w3.org/2000/svg"
   xmlns="http://www.w3.org/2000/svg"
   xmlns:sodipodi="http://sodipodi.sourceforge.net/DTD/sodipodi-0.dtd"
   xmlns:inkscape="http://www.inkscape.org/namespaces/inkscape"
   version="1.1"
   id="Layer_1"
   x="0px"
   y="0px"
   viewBox="0 0 100 100"
   style="enable-background:new 0 0 100 100;"
   xml:space="preserve"
   sodipodi:docname="icon_customdoc_v6.svg"
   inkscape:version="0.92.5 (2060ec1f9f, 2020-04-08)"
   inkscape:export-filename="C:\Users\Sabine\LMS FACTORY\Equipe LMS FACTORY - Documents\03 Plugin et dev specifiques\00 MOOFACTORY\picto moofactory\test_customdoc\icon_customdoc_v6.2.png"
   inkscape:export-xdpi="96"
   inkscape:export-ydpi="96"><metadata
   id="metadata15"><rdf:RDF><cc:Work
       rdf:about=""><dc:format>image/svg+xml</dc:format><dc:type
         rdf:resource="http://purl.org/dc/dcmitype/StillImage" /><dc:title /></cc:Work></rdf:RDF></metadata><defs
   id="defs13">
	
</defs><sodipodi:namedview
   pagecolor="#ffffff"
   bordercolor="#666666"
   borderopacity="1"
   objecttolerance="10"
   gridtolerance="10"
   guidetolerance="10"
   inkscape:pageopacity="0"
   inkscape:pageshadow="2"
   inkscape:window-width="1920"
   inkscape:window-height="991"
   id="namedview11"
   showgrid="false"
   inkscape:zoom="5.6568542"
   inkscape:cx="15.003187"
   inkscape:cy="59.551936"
   inkscape:window-x="-9"
   inkscape:window-y="-9"
   inkscape:window-maximized="1"
   inkscape:current-layer="Layer_1" />
<style
   type="text/css"
   id="style2">
	.st0{fill:#727272;}
	.st1{fill:#FFFFFF;}
</style>
<circle
   class="st0"
   cx="52.684235"
   cy="50.762169"
   r="48.400002"
   id="circle4"
   style="fill:#727272" />
<path
   style="fill:#ffffff"
   inkscape:connector-curvature="0"
   id="path6"
   d="m 38.1,22.03782 -10.1,10.1 h 10.1 z m 2.5,0 v 10.1 1.3 c 0,0.7 -0.6,1.3 -1.3,1.3 H 38 28 v 40.4 h 40.4 v -10.5 l -2.3,1.7 v 0 l -2.5,1.8 c -0.4,0.3 -1,0.3 -1.4,0 -0.4,-0.3 -0.7,-0.8 -0.6,-1.3 l 0.5,-3 1.2,-8.1 c 0.1,-0.4 0.2,-0.8 0.4,-1.1 l 4.6,-8 v -24.7 z m -6.6,15.7 c 0,0 0.1,0 0,0 h 0.2 29.1 c 0.7,0 1.3,0.6 1.3,1.3 0,0.7 -0.6,1.3 -1.3,1.3 H 34.2 c -0.7,0 -1.3,-0.5 -1.3,-1.2 -0.1,-0.7 0.5,-1.3 1.1,-1.4 z m 41.3,1.9 -1.9,3.3 5.7,3.2 1.9,-3.3 z m -3.2,5.5 -5.7,9.8 5.7,3.1 v 0 l 5.7,-9.8 -5.7,-3.1 c 0.1,0 0.1,0 0,0 z m -38.1,5.3 c 0,0 0.1,0 0,0 h 0.2 27.9 c 0.7,0 1.3,0.6 1.3,1.3 0,0.7 -0.6,1.3 -1.3,1.3 H 34.2 c -0.7,0 -1.3,-0.5 -1.3,-1.2 -0.1,-0.8 0.5,-1.4 1.1,-1.4 z m 31.7,7 -1.1,6.9 5.8,-4.2 z"
   class="st1"
   sodipodi:nodetypes="ccccccssccccccccsccccccccccsssscccccccccccccccccsssscccccc" />
<path
   style="fill:none;stroke:#12c332;stroke-width:2.70000005;stroke-linecap:round;stroke-linejoin:round;stroke-miterlimit:4;stroke-dasharray:none;stroke-opacity:1"
   d="M 56.104129,67.865592 H 39.699851"
   id="path816"
   inkscape:connector-curvature="0" /><path
   style="fill:#12c332;fill-opacity:1;stroke:none;stroke-width:1px;stroke-linecap:butt;stroke-linejoin:miter;stroke-opacity:1"
   d="m 62.117055,68.074682 0.105601,0.08157 0.164063,0.09375 0.195312,0.07422 0.160157,0.02734 0.09375,0.01172 h 0.136718 l 0.140625,-0.01563 0.121094,-0.02734 0.167969,-0.05859 0.07813,-0.04687 0.109375,-0.06641 0.183594,-0.136718 0.285156,-0.199219 1.597803,-1.15148 0.563475,-0.408796 0.381175,-0.287262 0.138107,-0.110485 C 65.41936,64.672686 63.97387,63.830369 62.165057,63.418273 l -0.569,3.397427 -0.01403,0.125706 0.0039,0.179688 0.01953,0.164062 0.07031,0.203125 0.101563,0.199219 0.148437,0.191406 0.152344,0.160156 z"
   id="path832"
   inkscape:connector-curvature="0"
   sodipodi:nodetypes="cccccccccccccccccccccccccccc" /><path
   style="fill:none;fill-opacity:1;stroke:#727272;stroke-width:2;stroke-linecap:butt;stroke-linejoin:miter;stroke-miterlimit:4;stroke-dasharray:none;stroke-opacity:1"
   d="M 39.273679,64.037586 H 36.50239 L 36.46875,71.0625 h 2.8125"
   id="path11"
   inkscape:connector-curvature="0"
   sodipodi:nodetypes="cccc" /><path
   style="fill:none;fill-opacity:1;stroke:#727272;stroke-width:2;stroke-linecap:butt;stroke-linejoin:miter;stroke-miterlimit:4;stroke-dasharray:none;stroke-opacity:1"
   d="m 56.205089,63.948603 h 2.771289 l 0.03364,7.024914 h -2.8125"
   id="path11-5"
   inkscape:connector-curvature="0"
   sodipodi:nodetypes="cccc" /></svg>