<?xml version="1.0" encoding="UTF-8" standalone="no"?>
<!-- Generator: Adobe Illustrator 25.2.1, SVG Export Plug-In . SVG Version: 6.00 Build 0)  -->

<svg
   xmlns:dc="http://purl.org/dc/elements/1.1/"
   xmlns:cc="http://creativecommons.org/ns#"
   xmlns:rdf="http://www.w3.org/1999/02/22-rdf-syntax-ns#"
   xmlns:svg="http://www.w3.org/2000/svg"
   xmlns="http://www.w3.org/2000/svg"
   xmlns:sodipodi="http://sodipodi.sourceforge.net/DTD/sodipodi-0.dtd"
   xmlns:inkscape="http://www.inkscape.org/namespaces/inkscape"
   width="24px"
   height="24px"
   version="1.1"
   id="Layer_1"
   x="0px"
   y="0px"
   viewBox="0 0 74.4 74.4"
   style="enable-background:new 0 0 74.4 74.4;"
   xml:space="preserve"
   preserveAspectRatio="xMinYMid meet"
   sodipodi:docname="monologo_customdoc_crayon.svg"
   inkscape:version="0.92.5 (2060ec1f9f, 2020-04-08)"
   inkscape:export-filename="C:\Users\Sabine\Pictures\monologo_customdoc_crayon.png"
   inkscape:export-xdpi="423"
   inkscape:export-ydpi="423"><metadata
   id="metadata17"><rdf:RDF><cc:Work
       rdf:about=""><dc:format>image/svg+xml</dc:format><dc:type
         rdf:resource="http://purl.org/dc/dcmitype/StillImage" /></cc:Work></rdf:RDF></metadata><defs
   id="defs15" /><sodipodi:namedview
   pagecolor="#ffffff"
   bordercolor="#666666"
   borderopacity="1"
   objecttolerance="10"
   gridtolerance="10"
   guidetolerance="10"
   inkscape:pageopacity="0"
   inkscape:pageshadow="2"
   inkscape:window-width="1209"
   inkscape:window-height="761"
   id="namedview13"
   showgrid="false"
   inkscape:zoom="6.9532166"
   inkscape:cx="-10.207283"
   inkscape:cy="25.822499"
   inkscape:window-x="457"
   inkscape:window-y="53"
   inkscape:window-maximized="0"
   inkscape:current-layer="g837" />
<g
   id="g10">
	<path
   d="M66.5,15.1L52.4,1c-0.7-0.7-1.6-1-2.6-1H10.3C8.2,0,6.6,1.6,6.6,3.7l0,0v67c0,2.1,1.6,3.7,3.7,3.7l0,0H64   c2.1,0,3.7-1.6,3.7-3.7l0,0V17.8C67.5,16.8,67.2,15.8,66.5,15.1z M48.4,6.7l12.5,12.5H48.4V6.7z M11.9,69.2V5h30.9v15.6   c0,2.2,1.7,3.8,3.8,3.8h15.6v44.7L11.9,69.2L11.9,69.2z"
   id="path2" />
	
	
	
<g
   id="g837"
   transform="matrix(1.2557473,0,0,1.1968672,-12.777773,-7.5982516)"><path
     inkscape:connector-curvature="0"
     id="path833"
     d="m 23.205106,53.236056 v 6.850528 h 7.018503"
     style="fill:#000000;fill-opacity:1;stroke:none;stroke-width:0.56941646;stroke-linecap:butt;stroke-linejoin:round;stroke-miterlimit:4;stroke-dasharray:none;stroke-opacity:1" /><rect
     style="opacity:1;fill:#000000;fill-opacity:1;stroke:none;stroke-width:5.94603539;stroke-linecap:round;stroke-linejoin:round;stroke-miterlimit:4;stroke-dasharray:none;stroke-opacity:1"
     id="rect819"
     width="9.8076067"
     height="31.894106"
     x="52.702271"
     y="-11.831933"
     transform="matrix(0.71561839,0.69849146,-0.66344017,0.74822934,0,0)" /></g></g>
</svg>